<svg width="81" height="80" viewBox="0 0 81 80" fill="none" xmlns="http://www.w3.org/2000/svg">
<path fill-rule="evenodd" clip-rule="evenodd" d="M4.96065 1.2459C0.825013 3.53729 0.774314 3.99856 0.742732 39.7324C0.711149 75.6566 0.805897 76.5251 4.98974 78.6885C8.37155 80.4372 72.8429 80.4372 76.2247 78.6885C80.4011 76.5284 80.5008 75.6283 80.5008 39.9793C80.5008 4.33018 80.4011 3.43008 76.2247 1.27001C72.9792 -0.408018 7.98425 -0.430458 4.96065 1.2459ZM75.6562 4.78563C77.0816 6.07469 77.1763 8.26801 77.1763 39.8346C77.1763 70.0025 77.0334 73.6669 75.8008 75.0283C74.5118 76.4536 72.3185 76.5484 40.7518 76.5484C10.584 76.5484 6.91959 76.4054 5.55822 75.1729C4.13286 73.8838 4.03811 71.6905 4.03811 40.1239C4.03811 9.956 4.18106 6.29161 5.41361 4.93024C6.70267 3.50488 8.89598 3.41013 40.4626 3.41013C70.6305 3.41013 74.2949 3.55308 75.6562 4.78563ZM21.0369 16.9266C20.815 17.5034 20.7336 28.6304 20.8549 41.6523L21.076 65.3283H36.0361C50.4618 65.3283 51.1275 65.2543 54.6622 63.2505C59.855 60.3084 61.6262 57.5507 62.045 51.7595C62.4224 46.5384 61.2197 43.1009 57.951 40.0549L56.1965 38.4209L57.9377 36.2068C63.1155 29.6244 59.7803 19.5903 51.4957 16.821C47.3999 15.4522 21.568 15.5419 21.0369 16.9266ZM52.2312 20.6575C55.4925 22.2923 57.2005 25.0707 57.2146 28.7592C57.2254 31.8684 54.5833 36.3273 52.3002 37.0521C49.6681 37.8873 50.2457 39.6784 53.6907 41.3656C57.4024 43.1824 58.8627 45.7871 58.8793 50.6175C58.8959 55.4156 57.1198 58.5497 53.3183 60.4314C50.7327 61.7105 47.8072 62.0437 37.075 62.2789L23.9849 62.5657V40.8835V19.2013L36.6594 19.203C47.0658 19.2038 49.8526 19.464 52.2312 20.6575ZM29.526 23.0802C29.2209 23.3844 28.9716 26.9374 28.9716 30.9758V38.317H38.1779C47.2454 38.317 47.4207 38.2804 49.8135 35.8877C53.5668 32.1343 52.7939 25.463 48.3723 23.4483C46.2065 22.4618 30.4518 22.1535 29.526 23.0802ZM47.921 26.8476C49.5451 28.4716 49.1536 33.1458 47.311 34.1323C46.4267 34.6053 42.6867 34.9926 38.9998 34.9926H32.2961V30.4214V25.8503H39.6099C44.1902 25.8503 47.2961 26.2226 47.921 26.8476ZM29.9789 41.4578C29.1977 41.9955 28.9733 44.4241 29.1478 50.4372L29.3872 58.6794L38.1139 58.9004C48.7538 59.1697 52.0874 57.9347 53.6508 53.145C54.9456 49.178 53.7247 44.5994 50.8732 42.7311C48.4862 41.1669 31.8739 40.1554 29.9789 41.4578ZM49.8235 46.5127C51.957 49.1481 51.8231 51.2791 49.3713 53.7301C47.5063 55.5959 46.6877 55.7705 39.8135 55.7705H32.2961V49.872V43.9744L40.2656 44.262C47.4581 44.5221 48.3906 44.7424 49.8235 46.5127Z" fill="#C1589C"/>
</svg>
