<svg width="73" height="80" viewBox="0 0 73 80" fill="none" xmlns="http://www.w3.org/2000/svg">
<path fill-rule="evenodd" clip-rule="evenodd" d="M1.02637 2.001C1.16581 3.10134 2.61032 19.1569 4.23682 37.6795C5.86332 56.202 7.25854 71.421 7.3369 71.4998C7.41567 71.5781 14.0615 73.5231 22.1051 75.8215L36.7301 80L51.2456 75.8607C59.2289 73.5837 65.8428 71.6392 65.943 71.5389C66.0433 71.4387 67.4562 56.202 69.0827 37.6795C70.7092 19.1569 72.1537 3.10134 72.2932 2.001L72.5463 0H36.6598H0.773193L1.02637 2.001ZM67.8362 4.52858C67.8522 6.38298 62.2052 68.1044 62.0009 68.3036C61.8492 68.4515 56.0792 70.1808 49.1784 72.1464L36.632 75.72L23.9027 72.0369C15.6429 69.647 11.1371 68.1494 11.0697 67.7724C10.9572 67.1405 5.48629 5.24641 5.48629 4.60483C5.48629 4.36639 17.7105 4.21263 36.6598 4.21263C53.8052 4.21263 67.8345 4.3546 67.8362 4.52858ZM17.5251 20.5366C17.6616 22.5641 17.8466 24.4598 17.9355 24.7492C18.061 25.157 21.3549 25.2758 32.5457 25.2758H46.9938L46.7048 28.7512C46.546 30.6625 46.4006 32.5582 46.3825 32.9639C46.3514 33.6438 45.591 33.7011 36.5987 33.7011H26.849L27.1173 36.5446C27.2652 38.1087 27.3873 40.0044 27.389 40.7572L27.392 42.1263H36.688H45.984L45.6908 46.6549C45.5295 49.1454 45.3231 51.3149 45.2316 51.4754C45.1402 51.6359 43.1662 52.3896 40.8446 53.1504L36.624 54.5338L32.3241 53.0691L28.0239 51.6048L27.8983 48.9719L27.7732 46.339H23.5787H19.3842L19.6235 51.2888C19.7553 54.0114 19.9381 56.6207 20.03 57.0879C20.1669 57.7834 21.6864 58.4288 28.4283 60.6564L36.6598 63.3757L44.8912 60.6564C51.6374 58.4275 53.1522 57.7838 53.2879 57.0879C53.4694 56.1531 55.6402 19.8689 55.6259 18.009L55.6166 16.8505H36.4466H17.2766L17.5251 20.5366Z" fill="#C1589C"/>
</svg>
