<svg width="56" height="80" viewBox="0 0 56 80" fill="none" xmlns="http://www.w3.org/2000/svg">
<path fill-rule="evenodd" clip-rule="evenodd" d="M11.615 0.550392C8.93772 1.26997 6.68733 2.60998 4.79605 4.60961C-0.719015 10.4412 -0.597722 18.9882 5.07918 24.5432C6.19398 25.6341 7.42258 26.6269 7.80963 26.7499C8.80825 27.0668 8.68151 27.3029 6.87609 28.4886C4.75823 29.8794 2.63527 32.5308 1.67277 34.9869C0.573978 37.7923 0.573978 42.2965 1.67277 45.1019C2.63527 47.5581 4.75823 50.2095 6.87609 51.6003C8.68151 52.786 8.80825 53.0221 7.80963 53.3389C7.42258 53.4619 6.19398 54.4547 5.07918 55.5457C-0.779661 61.2788 -0.674041 70.3315 5.31768 75.9985C10.9752 81.349 19.3563 81.332 25.0383 75.9583C26.0066 75.0425 27.2025 73.5519 27.6955 72.6456C29.4365 69.447 29.6369 67.845 29.6369 57.1276V47.2675L30.6069 48.6068C35.6626 55.5859 45.132 56.438 51.1179 50.4524C56.2875 45.2825 56.4735 37.347 51.5499 32.0289C50.321 30.7015 48.9565 29.6569 47.6052 29.0082L45.5395 28.0167L47.3551 27.0968C51.275 25.1104 54.1697 21.0863 54.9482 16.5413C56.1649 9.4378 50.905 1.90165 43.6744 0.388896C40.7876 -0.215182 13.9588 -0.0802614 11.615 0.550392ZM26.2298 14.5164V25.6144L19.3304 25.5043C12.7118 25.3983 12.3547 25.3578 10.5571 24.5036C8.29957 23.4311 6.37592 21.5626 5.16027 19.2611C4.38039 17.7849 4.26012 17.1487 4.26012 14.4912C4.26012 11.8337 4.38039 11.1976 5.16027 9.72127C6.6536 6.89373 9.34248 4.62766 12.2607 3.73671C12.7291 3.59361 16.0637 3.46346 19.6711 3.44745L26.2298 3.41815V14.5164ZM45.4799 4.49002C47.828 5.73293 49.6696 7.62216 50.723 9.8688C51.9912 12.5737 51.9908 16.4196 50.722 19.0908C49.5902 21.4744 47.6934 23.3711 45.3095 24.5036C43.5119 25.3578 43.1549 25.3983 36.5362 25.5043L29.6369 25.6144V14.4916V3.36874L36.7066 3.47879C43.5933 3.58577 43.8203 3.61167 45.4799 4.49002ZM26.2298 40.0696V51.1676L19.3304 51.0575C12.7118 50.9516 12.3547 50.911 10.5571 50.0569C8.29957 48.9843 6.37592 47.1159 5.16027 44.8144C4.38039 43.3381 4.26012 42.702 4.26012 40.0444C4.26012 37.3869 4.38039 36.7508 5.16027 35.2745C6.6536 32.447 9.34248 30.1809 12.2607 29.2899C12.7291 29.1468 16.0637 29.0167 19.6711 29.0007L26.2298 28.9714V40.0696ZM34.3976 29.5346C33.0337 30.4466 31.6614 31.7751 30.615 33.1962L29.6369 34.5249V31.7482V28.9714H32.4385C35.1567 28.9714 35.215 28.9881 34.3976 29.5346ZM46.2928 31.879C48.2914 32.9669 49.7006 34.418 50.8399 36.5617C51.4593 37.7273 51.6045 38.5497 51.6045 40.8962C51.6045 43.2427 51.4593 44.0652 50.8399 45.2307C49.7026 47.3704 48.2962 48.8208 46.27 49.9434C44.6598 50.8351 44.1347 50.9468 41.5617 50.9431C38.4002 50.9386 36.9069 50.3918 34.6535 48.4133C32.0593 46.1353 30.7329 41.6676 31.6477 38.2874C32.4777 35.221 35.6146 31.9536 38.6197 31.0258C39.2071 30.8443 40.7712 30.7431 42.0956 30.8006C43.9688 30.8821 44.9007 31.1216 46.2928 31.879ZM26.1698 61.424C26.0642 68.0334 26.0219 68.4031 25.1698 70.2201C24.0574 72.5921 22.1804 74.4612 19.7563 75.6111C17.082 76.8796 13.2293 76.8789 10.5571 75.6098C8.29957 74.5379 6.37592 72.6694 5.16027 70.3676C4.38039 68.8913 4.26012 68.2552 4.26012 65.5977C4.26012 62.9401 4.38039 62.304 5.16027 60.8277C6.6536 58.0002 9.34248 55.7341 12.2607 54.8432C12.7291 54.7001 16.0752 54.5699 19.6963 54.5539L26.2798 54.5246L26.1698 61.424Z" fill="#C1589C"/>
</svg>
