<svg width="72" height="80" viewBox="0 0 72 80" fill="none" xmlns="http://www.w3.org/2000/svg">
<path fill-rule="evenodd" clip-rule="evenodd" d="M0.253178 2.001C0.392616 3.10134 1.83713 19.1569 3.46363 37.6795C5.09012 56.202 6.48535 71.421 6.5637 71.4998C6.64248 71.5781 13.2883 73.5231 21.3319 75.8215L35.9569 80L50.4724 75.8607C58.4557 73.5837 65.0696 71.6392 65.1698 71.5389C65.2701 71.4387 66.683 56.202 68.3095 37.6795C69.936 19.1569 71.3805 3.10134 71.52 2.001L71.7731 0H35.8866H0L0.253178 2.001ZM67.063 4.52858C67.079 6.38298 61.432 68.1044 61.2277 68.3036C61.076 68.4515 55.3317 70.1736 48.463 72.13L35.9738 75.6871L23.191 72.0609C14.2905 69.5358 10.3749 68.2455 10.3003 67.8129C10.184 67.138 4.71309 5.2481 4.71309 4.60483C4.71309 4.36639 16.9373 4.21263 35.8866 4.21263C53.032 4.21263 67.0613 4.3546 67.063 4.52858ZM20.1216 18.6409C19.9957 19.6258 19.601 24.3174 19.2446 29.0672C18.8886 33.8169 18.4842 38.6981 18.3469 39.9147L18.0966 42.1263H31.8774H45.6582L45.4143 44.5486C45.2799 45.8806 45.0507 48.2401 44.905 49.7912C44.6059 52.9747 45.1691 52.5981 39.3291 53.5211C37.0071 53.888 35.3886 53.8901 32.7996 53.5295C26.7456 52.687 27.1007 52.8631 26.9566 50.6283L26.8294 48.6559L22.685 48.535L18.5411 48.4137L18.7639 49.5882C18.8865 50.234 19.1102 52.6078 19.261 54.8636L19.5352 58.9655L21.0758 59.3653C21.9234 59.5847 25.6242 60.5301 29.3001 61.4653L35.983 63.1655L43.9904 61.0899C48.3947 59.9483 52.0492 58.9583 52.1115 58.8901C52.1743 58.8218 52.6276 53.6479 53.1192 47.3921C53.6108 41.1364 54.1003 35.4969 54.2069 34.8595L54.4011 33.7011H40.9577H27.5144L27.6871 32.332C27.7819 31.5792 27.9744 29.6835 28.1151 28.1193L28.3708 25.2758H37.1445H45.9177L46.2075 27.3821L46.4974 29.4884H50.2491C54.6463 29.4884 54.3211 30.2122 53.3656 22.5536C53.0198 19.7821 52.7371 17.3649 52.7371 17.1825C52.7371 17.0001 45.4505 16.8505 36.5442 16.8505H20.3516L20.1216 18.6409Z" fill="#C1589C"/>
</svg>
