<svg width="81" height="80" viewBox="0 0 81 80" fill="none" xmlns="http://www.w3.org/2000/svg">
<path fill-rule="evenodd" clip-rule="evenodd" d="M3.73724 0.25491C3.31761 0.431154 2.45928 1.11934 1.82984 1.78465L0.685397 2.99356L0.58812 39.4951C0.49275 75.3887 0.503813 76.0177 1.25228 77.2404C1.67114 77.9244 2.57296 78.8247 3.25696 79.2416C4.47426 79.984 5.24943 80 40.5501 80C75.8508 80 76.626 79.984 77.8433 79.2416C78.5273 78.8247 79.4291 77.9244 79.848 77.2404C80.5964 76.0177 80.6075 75.3887 80.5121 39.4765L80.4148 2.95617L78.9782 1.51914L77.5412 0.0824805L41.0209 0.00847313C20.9344 -0.0323453 4.15687 0.0782841 3.73724 0.25491ZM76.333 4.16432C76.9968 4.8281 76.9968 75.0663 76.333 75.7301C75.6692 76.3939 5.43102 76.3939 4.76724 75.7301C4.10346 75.0663 4.10346 4.8281 4.76724 4.16432C5.43102 3.50055 75.6692 3.50055 76.333 4.16432ZM36.6541 49.5178L36.5446 62.9028L35.4741 63.8233C33.5843 65.448 30.8838 64.988 28.6178 62.6548L27.2799 61.2769L24.3795 63.0378C21.1 65.0288 21.1026 65.0093 23.699 67.883C26.5521 71.0409 30.5576 72.6328 34.6818 72.2476C38.9559 71.8485 41.7655 70.0373 43.3639 66.6508C44.138 65.0109 44.1795 64.2914 44.2905 50.5333L44.4069 36.1324H40.5852H36.7635L36.6541 49.5178ZM56.8443 36.6504C51.985 38.0226 49.1136 42.824 50.086 47.9518C50.8497 51.9787 53.4201 54.4774 59.4025 57.0093C63.5107 58.7473 65.3464 60.3038 65.3464 62.0479C65.3464 63.6688 64.7963 64.6137 63.4466 65.3119C60.732 66.7157 57.0415 65.5453 55.0483 62.6484L53.8661 60.9298L51.0221 62.8486L48.1782 64.7679L48.8187 65.8047C50.1249 67.9189 52.5439 70.0559 54.811 71.0985C56.8722 72.0461 57.5905 72.172 60.9673 72.177C64.5292 72.1819 64.9653 72.0961 67.3552 70.9196C70.2438 69.4975 71.6271 67.9601 72.4358 65.2722C73.1339 62.9528 73.1187 61.1655 72.3786 58.6737C71.4508 55.5501 69.4053 53.7866 63.3089 50.8556C60.4611 49.4861 57.9025 47.9987 57.5642 47.5154C56.0318 45.3276 57.5741 42.6176 60.3516 42.6176C62.259 42.6176 63.6324 43.2276 64.4156 44.4231C64.8214 45.0423 65.2327 45.2673 65.6607 45.1048C66.7407 44.694 70.6802 42.0633 70.6837 41.7508C70.6917 41.0611 67.438 38.0123 65.8988 37.2673C63.7701 36.2369 59.3708 35.9371 56.8443 36.6504Z" fill="#C1589C"/>
</svg>
