<svg width="75" height="80" viewBox="0 0 75 80" fill="none" xmlns="http://www.w3.org/2000/svg">
<path fill-rule="evenodd" clip-rule="evenodd" d="M23.6905 0.483271C13.0028 2.43502 5.06176 6.36341 2.1506 11.138C0.641221 13.6132 0.548892 15.2045 0.546483 38.8936C0.543272 66.5778 0.589838 66.8773 5.56114 70.6684C8.51004 72.918 14.1927 75.5056 18.0376 76.3502C20.2406 76.8343 20.6147 76.6922 20.6147 75.3739C20.6147 74.2539 19.6794 73.5514 17.2026 72.812C12.2465 71.3315 8.12306 69.0715 5.79477 66.561C4.09913 64.7328 3.75471 63.5775 3.75471 59.7246V55.0889L6.81842 57.1161C9.72717 59.0406 16.0007 61.5222 20.8155 62.6526C22.6556 63.0846 23.0233 62.9055 23.0233 61.5808C23.0233 60.3797 22.1875 59.78 19.6112 59.1313C14.3404 57.805 8.52851 54.9428 6.02519 52.4403C3.97469 50.3906 3.75471 49.6375 3.75471 44.671V39.1714L8.18729 41.8401C14.8542 45.8552 22.3818 47.4842 34.2633 47.4842C46.1448 47.4842 53.6724 45.8552 60.3394 41.8401L64.772 39.1714V43.983C64.772 51.073 63.7267 52.5414 55.5929 56.8801L51.5248 59.0502L55.1521 59.0879C57.7558 59.1152 59.624 58.5516 61.7757 57.0896L64.772 55.0536V57.0896C64.772 58.5902 65.1943 59.1257 66.3777 59.1257C67.9457 59.1257 67.9834 58.5902 67.9834 36.363C67.9834 13.9898 67.9521 13.5538 66.1497 10.8723C63.721 7.25699 57.2002 3.44421 50.518 1.73011C44.381 0.156507 29.3169 -0.543586 23.6905 0.483271ZM46.8947 4.19408C61.1744 7.14379 68.27 14.1712 62.8604 20.008C52.4842 31.2039 16.1067 31.2729 5.76667 20.1164C-3.77049 9.82614 23.3429 -0.670438 46.8947 4.19408ZM18.4237 29.9394C22.5561 30.9991 27.1179 31.4271 34.2633 31.4271C46.1448 31.4271 53.6724 29.7981 60.3394 25.783L64.772 23.1143V28.5584C64.772 33.1797 64.4829 34.3141 62.8604 36.0652C54.3332 45.2659 27.7762 47.5003 12.1213 40.3332C5.25766 37.1908 3.75471 35.0752 3.75471 28.5584V23.1143L8.18729 25.783C10.6248 27.2514 15.2316 29.1212 18.4237 29.9394ZM44.7005 56.3293C44.7005 56.9443 41.4602 72.132 40.9648 73.8381C40.614 75.048 40.9351 75.2583 42.8074 75.0423C44.8683 74.8055 45.1517 74.3768 45.9088 70.3657C46.7293 66.019 46.7863 65.95 49.5353 65.95C51.9889 65.95 52.3228 66.1932 52.2899 67.9571C52.2691 69.0611 52.0025 71.1621 51.6974 72.6257C51.1699 75.158 51.2486 75.2752 53.312 75.0343C55.2661 74.8063 55.5752 74.3126 56.4214 70.0719C57.2733 65.7974 57.2203 65.2226 55.8474 63.8497C54.8591 62.8614 53.1972 62.3371 51.0527 62.3371H47.7706L48.3134 59.1257C48.8304 56.0668 48.7573 55.9142 46.7783 55.9142C45.6358 55.9142 44.7005 56.1013 44.7005 56.3293ZM26.2348 62.6502C26.2348 63.1014 23.8671 76.0515 23.3926 78.1936C23.0594 79.6981 23.334 80 25.0353 80C26.6627 80 27.1757 79.5103 27.5595 77.5914C27.9962 75.406 28.3334 75.1828 31.1924 75.1828C32.925 75.1828 35.3584 74.6578 36.5989 74.0163C41.1037 71.6872 41.8785 64.6614 37.8015 63.1119C35.8642 62.3748 26.2348 61.9903 26.2348 62.6502ZM59.9548 62.6502C59.9548 63.1014 57.5872 76.0515 57.1127 78.1936C56.7795 79.6981 57.0541 80 58.7553 80C60.3827 80 60.8958 79.5103 61.2795 77.5914C61.7163 75.406 62.0535 75.1828 64.9125 75.1828C66.645 75.1828 69.0785 74.6578 70.3189 74.0163C74.8238 71.6872 75.5985 64.6614 71.5216 63.1119C69.5843 62.3748 59.9548 61.9903 59.9548 62.6502ZM36.1557 67.3076C37.4523 69.3798 34.7178 71.9714 31.235 71.9714C28.7453 71.9714 28.506 71.7835 28.9404 70.165C29.2061 69.1718 29.4293 67.7042 29.4349 66.9054C29.4438 65.7236 29.9953 65.498 32.3758 65.7011C34.0385 65.8424 35.6724 66.5369 36.1557 67.3076ZM69.8757 67.3076C71.1724 69.3798 68.4378 71.9714 64.955 71.9714C62.4654 71.9714 62.2261 71.7835 62.6605 70.165C62.9262 69.1718 63.1494 67.7042 63.155 66.9054C63.1638 65.7236 63.7154 65.498 66.0959 65.7011C67.7586 65.8424 69.3924 66.5369 69.8757 67.3076Z" fill="#C1589C"/>
</svg>
