<svg width="81" height="80" viewBox="0 0 81 80" fill="none" xmlns="http://www.w3.org/2000/svg">
<path fill-rule="evenodd" clip-rule="evenodd" d="M2.0345 1.29524L0.739258 2.59048V40V77.4095L2.0345 78.7048L3.32973 80H40.7393H78.1488L79.444 78.7048L80.7393 77.4095V40V2.59048L79.444 1.29524L78.1488 0H40.7393H3.32973L2.0345 1.29524ZM76.9297 40V76.1905H40.7393H4.54878V40V3.80952H40.7393H76.9297V40ZM25.1202 19.2331C24.8059 19.3128 23.9061 19.4827 23.1202 19.611L21.6916 19.8442V40.3981V60.9524H23.9774H26.2631V52.2392V43.5265L29.2154 43.3493C32.8589 43.1311 35.3994 41.9425 37.6227 39.4164C39.6901 37.0678 40.5042 34.536 40.4985 30.4762C40.4882 23.1813 36.7236 19.4491 29.1252 19.2008C27.2368 19.139 25.4345 19.1535 25.1202 19.2331ZM31.6604 22.4876C33.308 22.9451 35.1366 24.8872 35.7934 26.8766C36.0734 27.725 36.1899 29.4053 36.084 31.0594C35.7591 36.1189 33.1377 38.8571 28.6189 38.8571H26.644V30.6983C26.644 24.528 26.7602 22.493 27.1202 22.3474C27.9454 22.0145 30.209 22.0846 31.6604 22.4876ZM50.8909 30.8472C47.6951 31.864 45.6208 34.4495 45.385 37.7097C45.0981 41.6716 46.4044 43.7501 51.3774 47.245C54.3415 49.328 55.3309 50.9493 55.0855 53.3211C54.9495 54.6343 54.6276 55.2747 53.676 56.125C52.5625 57.12 52.2353 57.2118 50.3054 57.0712C49.1297 56.9855 47.6208 56.6419 46.9518 56.3074L45.7358 55.6994L45.1435 57.4381C44.8177 58.3943 44.5934 59.2118 44.6452 59.2541C45.4303 59.9002 47.657 60.629 49.3964 60.8091C54.8825 61.3775 59.0722 58.3688 59.6535 53.443C60.1229 49.4701 58.4345 46.5848 53.7008 43.2678C50.0295 40.6952 49.1499 39.2457 49.8474 36.9173C50.0791 36.1448 50.6897 35.2366 51.2048 34.899C52.3972 34.1181 54.916 34.1112 56.4128 34.8853C57.0501 35.2149 57.6139 35.4293 57.665 35.3615C57.7164 35.2937 58.0452 34.5017 58.3956 33.6011L59.033 31.9646L57.6006 31.3482C55.9073 30.6198 52.4238 30.3596 50.8909 30.8472Z" fill="#C1589C"/>
</svg>
