<svg width="88" height="80" viewBox="0 0 88 80" fill="none" xmlns="http://www.w3.org/2000/svg">
<path fill-rule="evenodd" clip-rule="evenodd" d="M23.2602 0.473596C20.0807 1.65997 18.0428 3.96178 16.9873 7.55905C16.1931 10.2656 16.2144 16.5797 17.0312 20.7442C17.759 24.4544 17.7659 24.7497 17.1235 24.7497C16.1397 24.7497 10.0521 27.3334 7.77018 28.7197C-1.42596 34.306 -2.36095 42.2982 5.49165 48.2011C7.9777 50.0699 11.9961 52.0947 15.3413 53.1644C16.4952 53.5333 17.5629 53.9464 17.7136 54.0818C17.8647 54.2176 17.6713 55.8748 17.2841 57.7642C15.2859 67.5173 16.2225 74.1503 20.1024 77.727C24.7796 82.038 32.308 80.1306 41.3576 72.3417L43.9898 70.0762L45.7827 71.7474C50.2845 75.944 55.5694 79.024 59.5332 79.7614C63.1141 80.427 65.6982 79.7152 67.9794 77.4344C70.3533 75.0601 71.075 72.9441 71.3112 67.6653C71.4477 64.6074 71.3169 62.486 70.8286 59.8451C69.7307 53.909 69.6655 54.1536 72.6173 53.1522C89.4475 47.4454 92.7652 36.1885 79.8604 28.5789C77.2713 27.0523 71.8445 24.7497 70.8355 24.7497C70.1309 24.7497 70.1321 24.1519 70.8454 20.4246C71.6938 15.9911 71.5977 10.1542 70.6245 7.00287C69.1479 2.22303 65.3247 -0.433925 60.6311 0.0581739C56.438 0.498011 50.9768 3.45022 46.234 7.84134L43.9967 9.91274L41.0177 7.39235C34.1131 1.55011 27.3923 -1.06831 23.2602 0.473596ZM28.9171 4.32951C31.3913 5.06423 34.8692 7.202 38.41 10.1641L41.2668 12.554L38.3177 16.0777C36.6957 18.0152 35.111 19.995 34.7963 20.4765C34.3023 21.2325 33.6508 21.4282 30.0279 21.9089C27.72 22.2148 24.8487 22.6985 23.6474 22.9831C21.1671 23.571 21.3937 23.7895 20.7322 20.172C20.015 16.2494 19.8758 13.1026 20.3011 10.4354C20.7997 7.30805 21.5829 5.80848 23.3339 4.62821C24.8185 3.6276 26.2887 3.54902 28.9171 4.32951ZM64.4405 4.51834C66.5256 5.78979 67.3519 7.94015 67.5281 12.5579C67.6639 16.1078 66.9277 22.5005 66.3124 23.1159C66.2197 23.2086 63.8542 22.9137 61.0561 22.4613C58.2576 22.0084 55.4149 21.5587 54.7389 21.4618C53.7864 21.3256 53.1245 20.7854 51.7993 19.0635C50.8586 17.8409 49.3094 15.9274 48.3565 14.8108L46.6235 12.7806L47.481 11.8609C47.9525 11.3551 49.3685 10.1309 50.6274 9.14026C56.6634 4.39055 61.5493 2.75556 64.4405 4.51834ZM46.3538 18.2647L48.4759 20.7442L46.2138 20.8579C44.9698 20.9201 42.9331 20.9201 41.688 20.8579L39.4243 20.7442L41.5545 18.1567C42.7264 16.7335 43.8078 15.6176 43.9581 15.6772C44.1088 15.7367 45.1868 16.9009 46.3538 18.2647ZM50.4344 24.9973C51.4617 25.2025 52.014 25.7701 53.6822 28.3352C54.7881 30.035 56.7351 33.3069 58.0093 35.6068L60.3263 39.7881L58.3118 43.6451C57.204 45.7669 55.4912 48.7962 54.5054 50.3777L52.7137 53.2525L50.3749 53.497C47.3479 53.8137 40.5279 53.8106 37.4765 53.4917L35.0859 53.2418L33.4371 50.6928C32.53 49.2909 30.8202 46.3151 29.6369 44.0796L27.4858 40.0154L29.4405 36.3026C32.871 29.7863 35.9823 25.1853 37.0737 25.0148C38.7518 24.7528 49.1427 24.739 50.4344 24.9973ZM30.9816 25.7328C30.9816 25.9166 28.7607 29.7981 26.0148 34.4128L25.3721 35.4923L23.9808 31.6185C23.2152 29.4876 22.5892 27.5978 22.5892 27.4185C22.5892 27.0645 25.8317 26.3202 30.6955 25.5577C30.8527 25.5329 30.9816 25.6118 30.9816 25.7328ZM62.4122 26.4896C63.8584 26.7814 65.1069 27.0858 65.187 27.1659C65.4083 27.3872 62.5919 35.0494 62.289 35.0494C62.1437 35.0494 61.2262 33.633 60.2504 31.9023C59.2746 30.1716 58.0196 28.0071 57.4618 27.0927L56.4475 25.4299L58.1153 25.6942C59.0324 25.8399 60.9661 26.1978 62.4122 26.4896ZM20.2962 32.3948C21.0809 34.5894 22.083 37.1987 22.5228 38.1939L23.3228 40.0032L22.2638 42.3901C21.6813 43.7027 20.8032 45.8928 20.3118 47.2565C19.8209 48.6203 19.2822 49.891 19.1152 50.0802C18.9393 50.2793 17.8014 50.0581 16.4086 49.5538C8.614 46.7301 3.8971 42.7266 3.8971 38.934C3.8971 37.5462 5.53972 35.0899 7.52108 33.514C9.95678 31.5773 17.434 28.0536 18.5357 28.3237C18.7192 28.3683 19.5115 30.2006 20.2962 32.3948ZM71.4531 28.8929C74.345 29.8881 78.5767 32.0782 80.3822 33.514C82.3636 35.0899 84.0062 37.5462 84.0062 38.934C84.0062 42.68 79.5685 46.5157 71.8906 49.4058C70.5719 49.902 69.2795 50.3083 69.0189 50.3083C68.7584 50.3083 68.2297 49.4069 67.844 48.3056C67.4583 47.2043 66.5378 44.883 65.7985 43.1481L64.4538 39.9929L65.4327 37.8075C66.2212 36.0466 67.63 32.3688 68.9369 28.6598C69.1471 28.0632 69.0044 28.0498 71.4531 28.8929ZM40.6111 31.1066C38.2704 31.9355 35.7088 34.6451 34.9954 37.048C34.6762 38.123 34.4148 39.4554 34.4148 40.0086C34.4148 44.9399 39.0204 49.5454 43.9516 49.5454C47.7847 49.5454 51.839 46.5684 52.9078 42.9692C53.6361 40.5178 53.6361 39.4993 52.9078 37.048C51.4407 32.1075 45.6664 29.3174 40.6111 31.1066ZM47.2891 35.3626C48.8944 36.5055 49.8042 38.588 49.5772 40.5999C49.216 43.8069 46.5193 45.9904 43.3604 45.6341C36.0098 44.8056 37.0085 33.8058 44.3797 34.4036C45.3703 34.4841 46.6452 34.9041 47.2891 35.3626ZM28.1064 49.0685C30.0027 52.3118 30.1023 52.596 29.3359 52.583C28.2075 52.5643 23.393 51.6206 23.1416 51.3692C23.0306 51.2586 23.5048 49.6739 24.1952 47.8478C25.0081 45.6971 25.5548 44.706 25.7467 45.0341C25.9099 45.3122 26.9716 47.1276 28.1064 49.0685ZM63.713 48.1149C64.5168 50.3327 64.7243 51.3349 64.4161 51.5088C63.8542 51.8258 58.0913 52.7532 57.9086 52.5556C57.7197 52.3515 62.0086 44.9856 62.3222 44.9757C62.4603 44.9711 63.0859 46.3841 63.713 48.1149ZM28.6546 56.3054L33.003 56.9803L34.5339 59.0803C35.3758 60.2354 37.2362 62.5837 38.6679 64.2988L41.271 67.4169L38.9002 69.3983C29.3111 77.4107 23.1343 78.3152 20.8493 72.0415C20.0223 69.7702 20.0227 63.3005 20.8505 59.2729C21.7275 55.0054 21.6458 55.1477 23.0706 55.4063C23.75 55.5299 26.2628 55.9343 28.6546 56.3054ZM66.4241 56.698C67.3115 60.0675 67.6769 63.5721 67.5396 67.3937C67.3691 72.1296 66.6774 73.9882 64.5511 75.4221C61.9155 77.199 57.2452 75.8425 51.5811 71.6543C50.2173 70.6461 48.5495 69.248 47.8747 68.548L46.6483 67.2747L48.5976 64.9904C49.6699 63.7342 51.5601 61.3756 52.798 59.7497C54.7511 57.1843 55.2104 56.7884 56.2713 56.7567C56.9438 56.7369 59.1247 56.4184 61.1179 56.0495C66.2574 55.0977 65.9946 55.0657 66.4241 56.698ZM49.2922 57.8081C49.2922 58.1293 45.6835 62.5845 44.6188 63.5771L43.6846 64.4483L41.9836 62.4326C40.0835 60.1812 38.2299 57.7558 38.2288 57.5204C38.2288 57.4354 40.7179 57.4174 43.7601 57.4804C46.8028 57.5437 49.2922 57.6909 49.2922 57.8081Z" fill="#C1589C"/>
</svg>
